<svg xmlns="http://www.w3.org/2000/svg" viewBox="0 0 1230.3 661.6"><defs><style>.cls-1{fill:#f7e7d2;}.cls-2{fill:#fff;}</style></defs><title>aboutmebackground</title><g id="Layer_2" data-name="Layer 2"><g id="Layer_1-2" data-name="Layer 1"><path class="cls-1" d="M1222.67.86h-3.85l3.85,107Z"/><path class="cls-1" d="M947.44,360.42C867.58,334.57,779.22,304.91,698,226.59c-40-38.54-43.94-55.85-73.38-88.26C573.07,81.51,479.18,17.76,293.52,0L0,.86V661.6H1222.67L1224.22,406C1105.13,404,1010.36,380.78,947.44,360.42Z"/><path class="cls-2" d="M624.66,138.33c45,42.24,41.86,56.7,80.67,97.07,48.33,50.28,96.48,72.94,181.28,112.85,56,26.34,98.15,40.87,179.45,68.43,68.12,23.09,125,40.3,164.24,51.71-6.38-115.47-9.24-235.77-7.63-360.55q.67-51.63,2.3-102.12L298.32,0c52.51,4.2,124.93,17.12,202,54.67C526.26,67.33,574.71,91.4,624.66,138.33Z"/></g></g></svg>